<svg width="60" height="60" viewBox="0 0 60 60" fill="none" xmlns="http://www.w3.org/2000/svg">
<path d="M35.2734 30C35.2734 32.9123 32.9123 35.2734 30 35.2734C27.0877 35.2734 24.7266 32.9123 24.7266 30C24.7266 27.0877 27.0877 24.7266 30 24.7266C32.9123 24.7266 35.2734 27.0877 35.2734 30Z" fill="black"/>
<path d="M38.9062 14.0625H21.0938C17.2165 14.0625 14.0625 17.2165 14.0625 21.0938V38.9062C14.0625 42.7835 17.2165 45.9375 21.0938 45.9375H38.9062C42.7835 45.9375 45.9375 42.7835 45.9375 38.9062V21.0938C45.9375 17.2165 42.7835 14.0625 38.9062 14.0625ZM30 38.7891C25.1537 38.7891 21.2109 34.8463 21.2109 30C21.2109 25.1537 25.1537 21.2109 30 21.2109C34.8463 21.2109 38.7891 25.1537 38.7891 30C38.7891 34.8463 34.8463 38.7891 30 38.7891ZM40.0781 21.6797C39.1072 21.6797 38.3203 20.8928 38.3203 19.9219C38.3203 18.951 39.1072 18.1641 40.0781 18.1641C41.049 18.1641 41.8359 18.951 41.8359 19.9219C41.8359 20.8928 41.049 21.6797 40.0781 21.6797Z" fill="black"/>
<path d="M44.1797 0H15.8203C7.09717 0 0 7.09717 0 15.8203V44.1797C0 52.9028 7.09717 60 15.8203 60H44.1797C52.9028 60 60 52.9028 60 44.1797V15.8203C60 7.09717 52.9028 0 44.1797 0ZM49.4531 38.9062C49.4531 44.7217 44.7217 49.4531 38.9062 49.4531H21.0938C15.2783 49.4531 10.5469 44.7217 10.5469 38.9062V21.0938C10.5469 15.2783 15.2783 10.5469 21.0938 10.5469H38.9062C44.7217 10.5469 49.4531 15.2783 49.4531 21.0938V38.9062Z" fill="black"/>
</svg>
